<svg id="visual" viewBox="0 0 900 450" width="900" height="450" xmlns="http://www.w3.org/2000/svg" xmlns:xlink="http://www.w3.org/1999/xlink" version="1.1"><rect x="0" y="0" width="900" height="450" fill="#CDBABA"></rect><path d="M0 229L18.8 220.2C37.7 211.3 75.3 193.7 112.8 196C150.3 198.3 187.7 220.7 225.2 224.2C262.7 227.7 300.3 212.3 337.8 214.2C375.3 216 412.7 235 450.2 232.5C487.7 230 525.3 206 562.8 192C600.3 178 637.7 174 675.2 190C712.7 206 750.3 242 787.8 249.2C825.3 256.3 862.7 234.7 881.3 223.8L900 213L900 451L881.3 451C862.7 451 825.3 451 787.8 451C750.3 451 712.7 451 675.2 451C637.7 451 600.3 451 562.8 451C525.3 451 487.7 451 450.2 451C412.7 451 375.3 451 337.8 451C300.3 451 262.7 451 225.2 451C187.7 451 150.3 451 112.8 451C75.3 451 37.7 451 18.8 451L0 451Z" fill="#444444" stroke-linecap="round" stroke-linejoin="miter"></path></svg>