<svg id="visual" viewBox="0 0 960 540" width="960" height="540" xmlns="http://www.w3.org/2000/svg" xmlns:xlink="http://www.w3.org/1999/xlink" version="1.1"><rect x="0" y="0" width="960" height="540" fill="#DCC0C0"></rect><path d="M0 171L32 181.3C64 191.7 128 212.3 192 213.2C256 214 320 195 384 205.2C448 215.3 512 254.7 576 274.3C640 294 704 294 768 269.2C832 244.3 896 194.7 928 169.8L960 145L960 541L928 541C896 541 832 541 768 541C704 541 640 541 576 541C512 541 448 541 384 541C320 541 256 541 192 541C128 541 64 541 32 541L0 541Z" fill="#e2b9b9"></path><path d="M0 296L32 293.7C64 291.3 128 286.7 192 297C256 307.3 320 332.7 384 348.7C448 364.7 512 371.3 576 376C640 380.7 704 383.3 768 368.5C832 353.7 896 321.3 928 305.2L960 289L960 541L928 541C896 541 832 541 768 541C704 541 640 541 576 541C512 541 448 541 384 541C320 541 256 541 192 541C128 541 64 541 32 541L0 541Z" fill="#816e6e"></path><path d="M0 348L32 361.5C64 375 128 402 192 406.8C256 411.7 320 394.3 384 396.2C448 398 512 419 576 426C640 433 704 426 768 412.3C832 398.7 896 378.3 928 368.2L960 358L960 541L928 541C896 541 832 541 768 541C704 541 640 541 576 541C512 541 448 541 384 541C320 541 256 541 192 541C128 541 64 541 32 541L0 541Z" fill="#2c2b2b"></path></svg>