<svg id="visual" viewBox="0 0 900 600" width="900" height="600" xmlns="http://www.w3.org/2000/svg" xmlns:xlink="http://www.w3.org/1999/xlink" version="1.1"><rect x="0" y="0" width="900" height="600" fill="#892B2B"></rect><path d="M0 217L21.5 214.8C43 212.7 86 208.3 128.8 200.3C171.7 192.3 214.3 180.7 257.2 179.3C300 178 343 187 385.8 210.5C428.7 234 471.3 272 514.2 268.8C557 265.7 600 221.3 642.8 209.8C685.7 198.3 728.3 219.7 771.2 237.5C814 255.3 857 269.7 878.5 276.8L900 284L900 601L878.5 601C857 601 814 601 771.2 601C728.3 601 685.7 601 642.8 601C600 601 557 601 514.2 601C471.3 601 428.7 601 385.8 601C343 601 300 601 257.2 601C214.3 601 171.7 601 128.8 601C86 601 43 601 21.5 601L0 601Z" fill="#802727"></path><path d="M0 354L21.5 354.5C43 355 86 356 128.8 343.5C171.7 331 214.3 305 257.2 300.7C300 296.3 343 313.7 385.8 328.5C428.7 343.3 471.3 355.7 514.2 353.3C557 351 600 334 642.8 325.2C685.7 316.3 728.3 315.7 771.2 315.8C814 316 857 317 878.5 317.5L900 318L900 601L878.5 601C857 601 814 601 771.2 601C728.3 601 685.7 601 642.8 601C600 601 557 601 514.2 601C471.3 601 428.7 601 385.8 601C343 601 300 601 257.2 601C214.3 601 171.7 601 128.8 601C86 601 43 601 21.5 601L0 601Z" fill="#952727"></path><path d="M0 418L21.5 427.2C43 436.3 86 454.7 128.8 448.5C171.7 442.3 214.3 411.7 257.2 403C300 394.3 343 407.7 385.8 420.2C428.7 432.7 471.3 444.3 514.2 431.7C557 419 600 382 642.8 370.3C685.7 358.7 728.3 372.3 771.2 376.5C814 380.7 857 375.3 878.5 372.7L900 370L900 601L878.5 601C857 601 814 601 771.2 601C728.3 601 685.7 601 642.8 601C600 601 557 601 514.2 601C471.3 601 428.7 601 385.8 601C343 601 300 601 257.2 601C214.3 601 171.7 601 128.8 601C86 601 43 601 21.5 601L0 601Z" fill="#a92627"></path><path d="M0 450L21.5 464C43 478 86 506 128.8 520.3C171.7 534.7 214.3 535.3 257.2 526.8C300 518.3 343 500.7 385.8 490.7C428.7 480.7 471.3 478.3 514.2 486.8C557 495.3 600 514.7 642.8 518.3C685.7 522 728.3 510 771.2 502.3C814 494.7 857 491.3 878.5 489.7L900 488L900 601L878.5 601C857 601 814 601 771.2 601C728.3 601 685.7 601 642.8 601C600 601 557 601 514.2 601C471.3 601 428.7 601 385.8 601C343 601 300 601 257.2 601C214.3 601 171.7 601 128.8 601C86 601 43 601 21.5 601L0 601Z" fill="#be2525"></path></svg>