<svg id="visual" viewBox="0 0 960 540" width="960" height="540" xmlns="http://www.w3.org/2000/svg" xmlns:xlink="http://www.w3.org/1999/xlink" version="1.1"><rect x="0" y="0" width="960" height="540" fill="#DCC0C0"></rect><path d="M0 142L22.8 154.7C45.7 167.3 91.3 192.7 137 182C182.7 171.3 228.3 124.7 274 108.5C319.7 92.3 365.3 106.7 411.2 106.8C457 107 503 93 548.8 115.3C594.7 137.7 640.3 196.3 686 197.8C731.7 199.3 777.3 143.7 823 122.2C868.7 100.7 914.3 113.3 937.2 119.7L960 126L960 541L937.2 541C914.3 541 868.7 541 823 541C777.3 541 731.7 541 686 541C640.3 541 594.7 541 548.8 541C503 541 457 541 411.2 541C365.3 541 319.7 541 274 541C228.3 541 182.7 541 137 541C91.3 541 45.7 541 22.8 541L0 541Z" fill="#e2b9b9"></path><path d="M0 398L22.8 374.7C45.7 351.3 91.3 304.7 137 274.2C182.7 243.7 228.3 229.3 274 223.2C319.7 217 365.3 219 411.2 222.8C457 226.7 503 232.3 548.8 260C594.7 287.7 640.3 337.3 686 354.7C731.7 372 777.3 357 823 351.7C868.7 346.3 914.3 350.7 937.2 352.8L960 355L960 541L937.2 541C914.3 541 868.7 541 823 541C777.3 541 731.7 541 686 541C640.3 541 594.7 541 548.8 541C503 541 457 541 411.2 541C365.3 541 319.7 541 274 541C228.3 541 182.7 541 137 541C91.3 541 45.7 541 22.8 541L0 541Z" fill="#b5a79c"></path><path d="M0 456L22.8 444.3C45.7 432.7 91.3 409.3 137 398.8C182.7 388.3 228.3 390.7 274 383C319.7 375.3 365.3 357.7 411.2 358C457 358.3 503 376.7 548.8 381.8C594.7 387 640.3 379 686 381.3C731.7 383.7 777.3 396.3 823 403.7C868.7 411 914.3 413 937.2 414L960 415L960 541L937.2 541C914.3 541 868.7 541 823 541C777.3 541 731.7 541 686 541C640.3 541 594.7 541 548.8 541C503 541 457 541 411.2 541C365.3 541 319.7 541 274 541C228.3 541 182.7 541 137 541C91.3 541 45.7 541 22.8 541L0 541Z" fill="#919190"></path></svg>